<?xml version="1.0" standalone="no"?>
<!DOCTYPE svg PUBLIC "-//W3C//DTD SVG 20010904//EN"
 "http://www.w3.org/TR/2001/REC-SVG-20010904/DTD/svg10.dtd">
<svg version="1.0" xmlns="http://www.w3.org/2000/svg"
 width="217.000000pt" height="46.000000pt" viewBox="0 0 217.000000 46.000000"
 preserveAspectRatio="xMidYMid meet">

<g transform="translate(0.000000,46.000000) scale(0.100000,-0.100000)"
fill="#000000" stroke="none">
<path d="M219 427 c-80 -43 -124 -145 -100 -235 12 -43 77 -122 101 -122 8 0
-5 16 -27 35 -124 106 -61 314 101 332 151 17 261 -138 195 -275 -26 -52 -85
-95 -125 -90 -29 3 -47 28 -21 28 19 0 77 69 76 90 0 12 -3 11 -12 -4 -33 -53
-60 -76 -87 -76 -29 0 -75 38 -85 71 -4 10 -11 19 -16 19 -6 0 -5 -9 2 -22 16
-32 60 -78 75 -78 6 0 18 -10 26 -22 33 -50 138 -6 177 74 38 79 25 173 -33
236 -58 64 -166 81 -247 39z"/>
<path d="M257 403 c-4 -3 -7 -21 -7 -39 0 -18 -6 -35 -12 -37 -10 -4 -10 -6 0
-6 8 -1 12 -23 12 -76 l0 -75 64 0 c76 0 75 -1 77 114 1 112 -7 126 -75 126
-29 0 -56 -3 -59 -7z"/>
<path d="M1083 403 c-28 -5 -33 -21 -40 -119 -7 -104 2 -124 61 -124 55 0 99
36 95 78 -2 18 5 39 19 56 26 34 26 35 6 65 -28 39 -81 56 -141 44z m82 -56
c23 -18 14 -33 -26 -41 -40 -8 -47 -2 -41 29 5 28 36 34 67 12z m-20 -116 c0
-17 -37 -32 -55 -21 -7 4 -10 15 -7 25 8 20 62 17 62 -4z"/>
<path d="M1437 403 c-24 -6 -35 -37 -43 -128 -8 -91 6 -115 66 -115 55 0 90
31 90 81 0 21 4 39 10 39 16 0 32 40 26 65 -3 12 -17 30 -30 39 -27 17 -90 28
-119 19z m77 -53 c36 -13 32 -27 -11 -39 -51 -15 -53 -14 -53 12 0 39 16 45
64 27z m-14 -115 c0 -17 -36 -39 -50 -30 -6 3 -10 15 -10 26 0 14 7 19 30 19
20 0 30 -5 30 -15z"/>
<path d="M1665 388 c-9 -25 -33 -213 -28 -220 8 -15 130 -9 143 7 19 22 3 35
-46 35 -40 0 -44 2 -44 25 0 21 5 25 29 25 17 0 33 5 36 10 9 15 -14 40 -36
40 -20 0 -24 16 -10 39 6 9 18 11 33 8 30 -8 53 6 45 27 -8 20 -115 23 -122 4z"/>
<path d="M620 365 c0 -20 5 -25 26 -25 l26 0 -4 -87 c-3 -82 -2 -88 17 -88 18
0 21 10 29 88 8 82 10 87 32 87 27 0 37 12 28 34 -5 13 -22 16 -80 16 -72 0
-74 -1 -74 -25z"/>
<path d="M912 370 c-31 -29 -60 -89 -75 -157 -16 -66 -13 -83 13 -83 12 0 20
10 24 35 6 31 11 35 36 35 25 0 30 -4 30 -24 0 -26 24 -51 40 -41 14 9 13 198
-2 230 -14 30 -37 32 -66 5z m28 -85 c0 -28 -4 -35 -20 -35 -24 0 -24 3 -5 40
20 39 25 38 25 -5z"/>
<path d="M1301 368 c-5 -13 -12 -66 -16 -119 -7 -98 -2 -115 27 -104 18 7 39
220 24 236 -16 15 -26 11 -35 -13z"/>
</g>
</svg>
